<svg width="141" height="45" viewBox="0 0 141 45" fill="none" xmlns="http://www.w3.org/2000/svg">
<path d="M16.9412 19.4717C16.96 22.6337 13.5125 25.9384 9.22414 25.3085C9.21518 23.3649 9.20801 21.4311 9.20801 19.5034C9.20801 17.5599 9.21249 15.6261 9.22414 13.6984C13.4847 13.0711 16.9277 16.3256 16.9412 19.4717Z" fill="#0000A9"/>
<path d="M17.8568 33.8018C17.7322 37.1876 13.9198 40.6729 9.17969 40.0148C9.21016 37.9559 9.23526 35.874 9.23975 33.7736C9.24692 31.505 9.24423 29.2549 9.22361 27.0338C14.169 26.4277 17.9814 30.2989 17.8568 33.8018Z" fill="#0000A9"/>
<path d="M25.8495 9.6644C25.1853 9.66793 24.522 9.66793 23.8622 9.67409C24.1769 5.76324 21.2161 2.68231 18.3772 2.69905C15.5554 2.71227 12.6403 5.78967 12.9594 9.67409C12.2952 9.67057 11.6319 9.67057 10.9721 9.6644C10.1654 4.81526 14.3336 0.894722 18.3665 0.877983C22.419 0.861244 26.6572 4.78531 25.8495 9.6644Z" fill="#0000D2"/>
<path d="M11.9297 11.0262C12.2491 11.0262 12.5079 10.7678 12.5079 10.4491C12.5079 10.1304 12.2491 9.87207 11.9297 9.87207C11.6104 9.87207 11.3516 10.1304 11.3516 10.4491C11.3516 10.7678 11.6104 11.0262 11.9297 11.0262Z" fill="#01FD82"/>
<path d="M24.8001 11.0551C25.1195 11.0551 25.3783 10.7967 25.3783 10.478C25.3783 10.1593 25.1195 9.90092 24.8001 9.90092C24.4808 9.90092 24.222 10.1593 24.222 10.478C24.222 10.7967 24.4808 11.0551 24.8001 11.0551Z" fill="#01FD82"/>
<path d="M36.1752 41.2685C36.1752 41.265 36.1743 41.2615 36.1743 41.258C36.1609 41.0862 36.1483 40.9135 36.1358 40.7417C36.1358 40.7408 36.1349 40.7399 36.1349 40.739C36.1161 40.4906 36.0973 40.2421 36.0793 39.9937C36.0506 39.614 36.022 39.2334 35.9924 38.8528C35.9924 38.8493 35.9924 38.8448 35.9915 38.8413C35.9906 38.8281 35.9888 38.814 35.9879 38.8008C35.6015 34.8767 35.2143 30.9527 34.828 27.0304L34.8262 27.0092C34.3591 22.2773 33.8912 17.5453 33.426 12.8133C33.3928 12.4856 33.3606 12.1578 33.3292 11.8301C33.019 10.6742 32.0438 9.7835 30.8301 9.5791H6.38993C5.21386 9.80993 4.27534 10.6865 3.97326 11.816H6.28147L10.049 11.8451L16.5711 11.8944C16.5989 11.8944 16.6294 11.8944 16.6572 11.8971C17.3205 11.9429 17.957 12.0786 18.5602 12.2935C20.3512 12.9331 21.8106 14.2741 22.6137 15.9656C23.0323 16.8378 23.2681 17.8078 23.2887 18.8184C23.3532 22.0552 21.1526 24.9097 18.1004 25.7758C18.0529 25.789 18.0045 25.8022 17.9561 25.8146C17.9426 25.8181 17.9283 25.8216 17.9148 25.8251C17.9122 25.826 17.9086 25.8269 17.9059 25.8278H17.9041C17.8297 25.8463 17.7553 25.8639 17.6809 25.8797C17.5455 25.9088 17.4093 25.9335 17.2721 25.9546C17.1081 25.9828 16.9396 26.0031 16.771 26.0163H16.7809C16.7836 26.0163 16.7863 26.0154 16.789 26.0154C16.8257 26.0128 16.8634 26.0119 16.9001 26.011C16.9324 26.0093 16.9656 26.0084 16.9978 26.0084C17.0471 26.0057 17.0973 26.0049 17.1466 26.0049H17.2623C17.2901 26.0049 17.3169 26.0057 17.3447 26.0066C17.4236 26.0075 17.5016 26.0101 17.5787 26.0145C17.6092 26.0154 17.6388 26.0172 17.6683 26.0198C17.7804 26.026 17.8915 26.0357 18.0027 26.048C18.1129 26.0604 18.2223 26.0745 18.3317 26.0912C21.98 26.6445 24.8323 29.7562 24.9408 33.4054C25.0286 36.5137 20.7905 40.4536 16.6572 41.2386C16.6294 41.2456 16.5989 41.2527 16.5685 41.2571C16.5622 41.258 16.5559 41.2588 16.5496 41.2597C16.5218 41.2633 16.4923 41.2677 16.4645 41.2729C16.3981 41.2826 16.3273 41.2914 16.2529 41.2994C16.2278 41.302 16.2027 41.3047 16.1767 41.3073C16.1507 41.3099 16.1238 41.3126 16.097 41.3144C16.0665 41.3179 16.036 41.3196 16.0046 41.3223C15.9338 41.3284 15.8603 41.3329 15.7823 41.3373C15.7644 41.339 15.7456 41.3399 15.7267 41.3408C15.6981 41.3425 15.6694 41.3443 15.6398 41.3452C15.5878 41.3487 15.5331 41.3514 15.4776 41.3531C15.4713 41.3531 15.465 41.354 15.4578 41.354C15.3189 41.3602 15.171 41.3655 15.0132 41.3699C14.9182 41.3725 14.8196 41.3743 14.7174 41.376C14.6627 41.3769 14.6072 41.3778 14.5507 41.3787C14.4906 41.3795 14.4297 41.3804 14.3669 41.3804C14.3257 41.3813 14.2836 41.3813 14.2414 41.3822C14.176 41.3831 14.1097 41.3831 14.0424 41.384C14.0057 41.384 13.968 41.3848 13.9304 41.3848H13.8685C13.8291 41.3848 13.7896 41.3848 13.7502 41.3857C13.1039 41.3892 12.342 41.3875 11.4447 41.3857C11.3183 41.3857 11.1928 41.3848 11.0682 41.384C10.975 41.384 10.8826 41.3831 10.7912 41.3822C10.741 41.3822 10.6908 41.3822 10.6406 41.3813C10.5644 41.3813 10.4891 41.3804 10.4138 41.3795C10.3018 41.3787 10.1897 41.3778 10.0795 41.376C10.0239 41.376 9.97012 41.3751 9.91544 41.3743C9.88138 41.3734 9.84731 41.3725 9.81415 41.3725C9.64294 41.3707 9.47441 41.3681 9.30858 41.3654C9.09972 41.3619 8.89624 41.3584 8.69724 41.3549C8.44177 41.3496 8.19526 41.3443 7.95593 41.339C7.87615 41.3373 7.79816 41.3355 7.72018 41.3329C7.5642 41.3293 7.41182 41.3249 7.26391 41.3205C7.18234 41.3188 7.10256 41.3161 7.02368 41.3144C6.91073 41.3108 6.79958 41.3073 6.69201 41.3029C6.57459 41.2985 6.45985 41.295 6.3487 41.2906C6.32898 41.2906 6.31015 41.2897 6.29043 41.2888H6.28147V41.3884H1.8515C1.43288 41.3884 1.06536 41.6227 0.87712 41.9716L0.876224 41.9725C0.852021 42.0174 0.831404 42.0641 0.813477 42.1117C0.906701 43.4464 1.86315 44.5468 3.13872 44.8781H29.5796C30.4957 44.8561 31.4118 44.8349 32.3279 44.8129C32.3916 44.8111 32.4543 44.8094 32.518 44.8085C32.5189 44.8085 32.5189 44.8085 32.5198 44.8085C32.526 44.8094 32.5314 44.8111 32.5377 44.812H33.755C33.8115 44.8014 33.867 44.7891 33.9217 44.775H33.9226C33.9674 44.7644 34.0105 44.7521 34.0544 44.738C35.1444 44.4164 35.9825 43.5275 36.2183 42.4183L36.221 42.4042L36.2461 42.2685L36.2496 42.2474C36.2245 41.9214 36.1994 41.5945 36.1752 41.2685ZM11.9305 11.0266C11.6141 11.0266 11.3568 10.7676 11.3568 10.4495C11.3568 10.1306 11.6141 9.87248 11.9305 9.87248C12.2479 9.87248 12.5042 10.1306 12.5042 10.4495C12.5042 10.7676 12.2479 11.0266 11.9305 11.0266ZM24.8018 11.0539C24.4854 11.0539 24.2281 10.7958 24.2281 10.4769C24.2281 10.1588 24.4854 9.89979 24.8018 9.89979C25.1191 9.89979 25.3755 10.1588 25.3755 10.4769C25.3755 10.7958 25.1191 11.0539 24.8018 11.0539Z" fill="#0000D2"/>
<path fill-rule="evenodd" clip-rule="evenodd" d="M36.2491 42.2145C36.2419 42.2735 36.2339 42.3325 36.2231 42.3907V42.3933C35.9963 43.6452 35.0067 44.6337 33.7419 44.8778H3.12562C1.85006 44.5465 0.893605 43.4461 0.80038 42.1114C0.797691 42.085 0.796795 42.0576 0.795898 42.0303L0.801277 41.9722L0.802173 41.9713L0.868506 41.285H6.3356V41.2903C6.44675 41.2947 6.56149 41.2982 6.67892 41.3026C6.78649 41.3061 6.89764 41.3097 7.01058 41.3132C7.08947 41.3158 7.16925 41.3176 7.25082 41.3202C7.39872 41.3246 7.55111 41.329 7.70708 41.3326C7.78507 41.3352 7.86305 41.337 7.94283 41.3387C8.16245 41.3449 8.38834 41.3502 8.6223 41.3546C8.8213 41.3581 9.02478 41.3616 9.23364 41.3652C9.39947 41.3678 9.56799 41.3704 9.7392 41.3722C9.84766 41.374 9.95613 41.3749 10.0664 41.3757C10.1766 41.3775 10.2887 41.3784 10.4007 41.3793C10.476 41.3801 10.5513 41.381 10.6275 41.381C10.6777 41.3819 10.7279 41.3819 10.7781 41.3819C10.8696 41.3828 10.9619 41.3837 11.0551 41.3837C11.1797 41.3845 11.3052 41.3854 11.4316 41.3854C12.3289 41.3872 13.0908 41.3889 13.7371 41.3854C13.7765 41.3845 13.816 41.3845 13.8554 41.3845C13.8931 41.3845 13.9307 41.3837 13.9675 41.3837H14.0293C14.0966 41.3828 14.1629 41.3828 14.2283 41.3819C14.2705 41.381 14.3126 41.381 14.3538 41.3801C14.3951 41.3793 14.4354 41.3793 14.4757 41.3784C14.5322 41.3775 14.5878 41.3766 14.6425 41.3757C14.7447 41.374 14.8433 41.3722 14.9383 41.3696C15.1202 41.3652 15.2888 41.3599 15.4447 41.3537C15.4519 41.3537 15.4582 41.3528 15.4645 41.3528C15.52 41.3511 15.5747 41.3484 15.6267 41.3449C15.6563 41.344 15.685 41.3423 15.7137 41.3405C15.7325 41.3396 15.7513 41.3387 15.7692 41.337C15.8472 41.3326 15.9207 41.3282 15.9915 41.322C16.0229 41.3193 16.0534 41.3176 16.0839 41.3141C16.1108 41.3123 16.1376 41.3097 16.1636 41.307C16.1896 41.3044 16.2147 41.3017 16.2398 41.2991C16.3178 41.2912 16.3913 41.2823 16.4603 41.2727C16.4953 41.2682 16.5303 41.2638 16.5625 41.2568C16.5921 41.2524 16.619 41.2471 16.6468 41.2409C16.6513 41.2401 16.6549 41.2392 16.6593 41.2383C20.7908 40.4507 25.0316 36.5134 24.9438 33.4051C24.8344 29.7489 21.9776 26.638 18.3275 26.0909C18.2155 26.0733 18.1025 26.0592 17.9896 26.0477C17.8784 26.0354 17.7673 26.0257 17.6552 26.0195C17.6257 26.0169 17.5961 26.0151 17.5656 26.0143C17.4885 26.0098 17.4105 26.0072 17.3316 26.0063C17.294 26.0054 17.2554 26.0046 17.2169 26.0046H17.1335C17.0842 26.0054 17.034 26.0063 16.9847 26.0081C16.9525 26.0081 16.9193 26.009 16.887 26.0107C16.8476 26.0116 16.8073 26.0143 16.7678 26.016C16.7705 26.016 16.7732 26.0151 16.7759 26.0151C16.792 26.0134 16.809 26.0125 16.8252 26.0107H16.8279C16.9758 25.9975 17.1237 25.979 17.268 25.9543C17.4025 25.9341 17.5351 25.9085 17.6678 25.8795C17.7458 25.8627 17.822 25.8442 17.8991 25.8248H17.9017C17.9152 25.8213 17.9295 25.8178 17.943 25.8143C17.9914 25.8019 18.0398 25.7887 18.0873 25.7755C21.1494 24.9236 23.3608 22.0629 23.2944 18.8154C23.2729 17.8049 23.0354 16.8358 22.6168 15.9653L34.6939 26.9032C34.9717 29.7101 35.2487 32.5162 35.5248 35.3231C35.6969 37.0675 35.869 38.812 36.0411 40.5555C36.0438 40.5872 36.0474 40.6198 36.051 40.6515C36.0537 40.6806 36.0564 40.7088 36.0591 40.7379L36.06 40.7388V40.7396C36.0815 40.7951 36.1021 40.8506 36.12 40.907L36.2455 42.1766L36.2491 42.2145Z" fill="#0000A9"/>
<path d="M44.5438 27.0319C43.7505 27.0319 43.0085 26.9339 42.3178 26.7379C41.6272 26.5419 41.0392 26.2713 40.5538 25.9259L41.1978 24.2179C41.5152 24.4326 41.8512 24.6146 42.2058 24.7639C42.5605 24.9133 42.9338 25.0299 43.3258 25.1139C43.7178 25.1886 44.1285 25.2259 44.5578 25.2259C45.2298 25.2259 45.7058 25.1233 45.9858 24.9179C46.2752 24.7126 46.4198 24.4513 46.4198 24.1339C46.4198 23.8446 46.3218 23.6253 46.1258 23.4759C45.9392 23.3173 45.5938 23.1819 45.0898 23.0699L43.4378 22.7339C42.5325 22.5473 41.8558 22.2299 41.4078 21.7819C40.9598 21.3339 40.7358 20.7366 40.7358 19.9899C40.7358 19.3553 40.9038 18.8046 41.2398 18.3379C41.5758 17.8713 42.0472 17.5073 42.6538 17.2459C43.2698 16.9846 43.9885 16.8539 44.8098 16.8539C45.5098 16.8539 46.1632 16.9519 46.7698 17.1479C47.3765 17.3439 47.8758 17.6239 48.2678 17.9879L47.6238 19.5839C47.2412 19.2759 46.8118 19.0473 46.3358 18.8979C45.8692 18.7393 45.3465 18.6599 44.7678 18.6599C44.1612 18.6599 43.6945 18.7673 43.3678 18.9819C43.0505 19.1966 42.8918 19.4906 42.8918 19.8639C42.8918 20.1439 42.9898 20.3726 43.1858 20.5499C43.3818 20.7179 43.7272 20.8533 44.2218 20.9559L45.8458 21.2779C46.7698 21.4646 47.4558 21.7773 47.9038 22.2159C48.3518 22.6546 48.5758 23.2379 48.5758 23.9659C48.5758 24.5819 48.4078 25.1186 48.0718 25.5759C47.7452 26.0333 47.2785 26.3926 46.6718 26.6539C46.0745 26.9059 45.3652 27.0319 44.5438 27.0319ZM53.271 27.0319C52.347 27.0319 51.6516 26.8033 51.185 26.3459C50.7183 25.8793 50.485 25.1839 50.485 24.2599V21.3619H49.141V19.7799H50.485V18.0439L52.599 17.5259V19.7799H54.419V21.3619H52.599V24.1479C52.599 24.5959 52.6923 24.9039 52.879 25.0719C53.0656 25.2399 53.3036 25.3239 53.593 25.3239C53.7703 25.3239 53.915 25.3146 54.027 25.2959C54.1483 25.2679 54.2743 25.2306 54.405 25.1839V26.8219C54.2276 26.8966 54.041 26.9479 53.845 26.9759C53.649 27.0133 53.4576 27.0319 53.271 27.0319ZM58.7954 27.0319C58.0394 27.0319 57.3814 26.8826 56.8214 26.5839C56.2707 26.2759 55.8414 25.8466 55.5334 25.2959C55.2347 24.7453 55.0854 24.0873 55.0854 23.3219C55.0854 22.5659 55.2347 21.9126 55.5334 21.3619C55.8414 20.8113 56.2707 20.3866 56.8214 20.0879C57.3814 19.7893 58.0394 19.6399 58.7954 19.6399C59.5514 19.6399 60.2094 19.7893 60.7694 20.0879C61.3294 20.3866 61.7587 20.8113 62.0574 21.3619C62.3654 21.9126 62.5194 22.5659 62.5194 23.3219C62.5194 24.0873 62.3654 24.7453 62.0574 25.2959C61.7587 25.8466 61.3294 26.2759 60.7694 26.5839C60.2094 26.8826 59.5514 27.0319 58.7954 27.0319ZM58.7954 25.4359C59.2807 25.4359 59.6634 25.2633 59.9434 24.9179C60.2327 24.5726 60.3774 24.0406 60.3774 23.3219C60.3774 22.6033 60.2327 22.0759 59.9434 21.7399C59.6634 21.4039 59.2807 21.2359 58.7954 21.2359C58.31 21.2359 57.9227 21.4039 57.6334 21.7399C57.3534 22.0759 57.2134 22.6033 57.2134 23.3219C57.2134 24.0406 57.3534 24.5726 57.6334 24.9179C57.9227 25.2633 58.31 25.4359 58.7954 25.4359ZM63.8706 26.8779V21.6559C63.8706 21.3479 63.8613 21.0353 63.8426 20.7179C63.8333 20.4006 63.8099 20.0879 63.7726 19.7799H65.8026L66.0406 21.8519H65.7186C65.8119 21.3479 65.9613 20.9326 66.1666 20.6059C66.3813 20.2793 66.6426 20.0366 66.9506 19.8779C67.2679 19.7193 67.6273 19.6399 68.0286 19.6399C68.2059 19.6399 68.3459 19.6493 68.4486 19.6679C68.5513 19.6773 68.6539 19.7006 68.7566 19.7379L68.7426 21.5999C68.5466 21.5159 68.3786 21.4646 68.2386 21.4459C68.1079 21.4179 67.9399 21.4039 67.7346 21.4039C67.3426 21.4039 67.0159 21.4786 66.7546 21.6279C66.5026 21.7773 66.3113 21.9966 66.1806 22.2859C66.0593 22.5753 65.9986 22.9253 65.9986 23.3359V26.8779H63.8706ZM73.0874 27.0319C71.8554 27.0319 70.8941 26.7006 70.2034 26.0379C69.5127 25.3753 69.1674 24.4746 69.1674 23.3359C69.1674 22.5986 69.3121 21.9546 69.6014 21.4039C69.9001 20.8533 70.3107 20.4239 70.8334 20.1159C71.3654 19.7986 71.9861 19.6399 72.6954 19.6399C73.3954 19.6399 73.9787 19.7893 74.4454 20.0879C74.9214 20.3866 75.2761 20.8066 75.5094 21.3479C75.7521 21.8799 75.8734 22.5006 75.8734 23.2099V23.6999H70.9034V22.6499H74.3334L74.0954 22.8459C74.0954 22.2579 73.9741 21.8146 73.7314 21.5159C73.4981 21.2079 73.1574 21.0539 72.7094 21.0539C72.2147 21.0539 71.8321 21.2359 71.5614 21.5999C71.3001 21.9639 71.1694 22.4866 71.1694 23.1679V23.3919C71.1694 24.0826 71.3374 24.5959 71.6734 24.9319C72.0187 25.2679 72.5134 25.4359 73.1574 25.4359C73.5401 25.4359 73.8994 25.3893 74.2354 25.2959C74.5807 25.1933 74.9074 25.0346 75.2154 24.8199L75.8034 26.2199C75.4487 26.4813 75.0381 26.6819 74.5714 26.8219C74.1141 26.9619 73.6194 27.0319 73.0874 27.0319Z" fill="#0000D2"/>
<path d="M44.4298 42.0099C43.9418 42.0099 43.5058 41.8899 43.1218 41.6499C42.7458 41.4099 42.4938 41.0899 42.3658 40.6899H42.4978V41.8779H40.7098V33.0459H42.5218V36.9339H42.3658C42.5018 36.5499 42.7578 36.2459 43.1338 36.0219C43.5178 35.7899 43.9498 35.6739 44.4298 35.6739C44.9658 35.6739 45.4338 35.8019 45.8338 36.0579C46.2338 36.3139 46.5458 36.6779 46.7698 37.1499C47.0018 37.6219 47.1178 38.1899 47.1178 38.8539C47.1178 39.5099 47.0018 40.0739 46.7698 40.5459C46.5458 41.0179 46.2298 41.3819 45.8218 41.6379C45.4218 41.8859 44.9578 42.0099 44.4298 42.0099ZM43.8898 40.6419C44.2978 40.6419 44.6338 40.4979 44.8978 40.2099C45.1618 39.9219 45.2938 39.4699 45.2938 38.8539C45.2938 38.2379 45.1618 37.7819 44.8978 37.4859C44.6338 37.1899 44.2978 37.0419 43.8898 37.0419C43.4738 37.0419 43.1338 37.1859 42.8698 37.4739C42.6138 37.7619 42.4858 38.2139 42.4858 38.8299C42.4858 39.4459 42.6138 39.9019 42.8698 40.1979C43.1338 40.4939 43.4738 40.6419 43.8898 40.6419ZM48.0912 44.6019L47.6712 43.1859C48.0472 43.1139 48.3632 43.0299 48.6192 42.9339C48.8832 42.8379 49.0992 42.7099 49.2672 42.5499C49.4352 42.3979 49.5712 42.1979 49.6752 41.9499L49.9752 41.2419L49.9272 41.9379L47.2872 35.7939H49.1952L50.9352 40.1979H50.5632L52.3272 35.7939H54.1272L51.3792 42.1179C51.1792 42.5739 50.9632 42.9499 50.7312 43.2459C50.5072 43.5499 50.2632 43.7899 49.9992 43.9659C49.7352 44.1419 49.4432 44.2779 49.1232 44.3739C48.8112 44.4699 48.4672 44.5459 48.0912 44.6019ZM62.3476 42.0099C61.4436 42.0099 60.6676 41.8299 60.0196 41.4699C59.3716 41.1099 58.8716 40.6059 58.5196 39.9579C58.1756 39.3019 58.0036 38.5299 58.0036 37.6419C58.0036 36.7539 58.1756 35.9859 58.5196 35.3379C58.8716 34.6899 59.3716 34.1859 60.0196 33.8259C60.6676 33.4659 61.4436 33.2859 62.3476 33.2859C62.9316 33.2859 63.4636 33.3699 63.9436 33.5379C64.4236 33.6979 64.8316 33.9339 65.1676 34.2459L64.5796 35.7219C64.2116 35.4339 63.8596 35.2299 63.5236 35.1099C63.1956 34.9899 62.8236 34.9299 62.4076 34.9299C61.6156 34.9299 61.0076 35.1659 60.5836 35.6379C60.1676 36.1019 59.9596 36.7699 59.9596 37.6419C59.9596 38.5139 60.1676 39.1859 60.5836 39.6579C61.0076 40.1299 61.6156 40.3659 62.4076 40.3659C62.8236 40.3659 63.1956 40.3059 63.5236 40.1859C63.8596 40.0659 64.2116 39.8619 64.5796 39.5739L65.1676 41.0499C64.8316 41.3539 64.4236 41.5899 63.9436 41.7579C63.4636 41.9259 62.9316 42.0099 62.3476 42.0099ZM66.3504 41.8779V33.0459H68.1624V36.9339H67.9824C68.1744 36.5259 68.4584 36.2139 68.8344 35.9979C69.2104 35.7819 69.6424 35.6739 70.1304 35.6739C70.8424 35.6739 71.3744 35.8819 71.7264 36.2979C72.0784 36.7059 72.2544 37.3339 72.2544 38.1819V41.8779H70.4424V38.2659C70.4424 37.8419 70.3624 37.5379 70.2024 37.3539C70.0504 37.1699 69.8104 37.0779 69.4824 37.0779C69.0824 37.0779 68.7624 37.2019 68.5224 37.4499C68.2824 37.6979 68.1624 38.0299 68.1624 38.4459V41.8779H66.3504ZM76.0738 42.0099C75.5458 42.0099 75.0818 41.8819 74.6818 41.6259C74.2818 41.3699 73.9698 41.0059 73.7458 40.5339C73.5218 40.0619 73.4098 39.4939 73.4098 38.8299C73.4098 38.1739 73.5218 37.6099 73.7458 37.1379C73.9698 36.6659 74.2818 36.3059 74.6818 36.0579C75.0818 35.8019 75.5458 35.6739 76.0738 35.6739C76.5618 35.6739 76.9978 35.7939 77.3818 36.0339C77.7738 36.2659 78.0298 36.5819 78.1498 36.9819H78.0178L78.1618 35.7939H79.9018C79.8778 36.0579 79.8538 36.3259 79.8298 36.5979C79.8138 36.8619 79.8058 37.1219 79.8058 37.3779V41.8779H78.0058L77.9938 40.7379H78.1378C78.0098 41.1219 77.7538 41.4299 77.3698 41.6619C76.9858 41.8939 76.5538 42.0099 76.0738 42.0099ZM76.6258 40.6419C77.0418 40.6419 77.3778 40.4939 77.6338 40.1979C77.8898 39.9019 78.0178 39.4459 78.0178 38.8299C78.0178 38.2139 77.8898 37.7619 77.6338 37.4739C77.3778 37.1859 77.0418 37.0419 76.6258 37.0419C76.2098 37.0419 75.8738 37.1859 75.6178 37.4739C75.3618 37.7619 75.2338 38.2139 75.2338 38.8299C75.2338 39.4459 75.3578 39.9019 75.6058 40.1979C75.8618 40.4939 76.2018 40.6419 76.6258 40.6419ZM81.2919 41.8779V37.3779C81.2919 37.1219 81.2839 36.8619 81.2679 36.5979C81.2519 36.3259 81.2279 36.0579 81.1959 35.7939H82.9359L83.0679 36.9219H82.9239C83.1239 36.5219 83.4079 36.2139 83.7759 35.9979C84.1439 35.7819 84.5719 35.6739 85.0599 35.6739C85.7719 35.6739 86.3039 35.8819 86.6559 36.2979C87.0159 36.7059 87.1959 37.3419 87.1959 38.2059V41.8779H85.3839V38.2899C85.3839 37.8499 85.3039 37.5379 85.1439 37.3539C84.9839 37.1699 84.7439 37.0779 84.4239 37.0779C84.0239 37.0779 83.7039 37.2059 83.4639 37.4619C83.2239 37.7099 83.1039 38.0459 83.1039 38.4699V41.8779H81.2919ZM88.6512 41.8779V37.3779C88.6512 37.1219 88.6432 36.8619 88.6272 36.5979C88.6112 36.3259 88.5872 36.0579 88.5552 35.7939H90.2952L90.4272 36.9219H90.2832C90.4832 36.5219 90.7672 36.2139 91.1352 35.9979C91.5032 35.7819 91.9312 35.6739 92.4192 35.6739C93.1312 35.6739 93.6632 35.8819 94.0152 36.2979C94.3752 36.7059 94.5552 37.3419 94.5552 38.2059V41.8779H92.7432V38.2899C92.7432 37.8499 92.6632 37.5379 92.5032 37.3539C92.3432 37.1699 92.1032 37.0779 91.7832 37.0779C91.3832 37.0779 91.0632 37.2059 90.8232 37.4619C90.5832 37.7099 90.4632 38.0459 90.4632 38.4699V41.8779H88.6512ZM99.0706 42.0099C98.0146 42.0099 97.1906 41.7259 96.5986 41.1579C96.0066 40.5899 95.7106 39.8179 95.7106 38.8419C95.7106 38.2099 95.8346 37.6579 96.0826 37.1859C96.3386 36.7139 96.6906 36.3459 97.1386 36.0819C97.5946 35.8099 98.1266 35.6739 98.7346 35.6739C99.3346 35.6739 99.8346 35.8019 100.235 36.0579C100.643 36.3139 100.947 36.6739 101.147 37.1379C101.355 37.5939 101.459 38.1259 101.459 38.7339V39.1539H97.1986V38.2539H100.139L99.9346 38.4219C99.9346 37.9179 99.8306 37.5379 99.6226 37.2819C99.4226 37.0179 99.1306 36.8859 98.7466 36.8859C98.3226 36.8859 97.9946 37.0419 97.7626 37.3539C97.5386 37.6659 97.4266 38.1139 97.4266 38.6979V38.8899C97.4266 39.4819 97.5706 39.9219 97.8586 40.2099C98.1546 40.4979 98.5786 40.6419 99.1306 40.6419C99.4586 40.6419 99.7666 40.6019 100.055 40.5219C100.351 40.4339 100.631 40.2979 100.895 40.1139L101.399 41.3139C101.095 41.5379 100.743 41.7099 100.343 41.8299C99.9506 41.9499 99.5266 42.0099 99.0706 42.0099ZM102.608 41.8779V33.0459H104.42V41.8779H102.608ZM106.021 41.8779V33.4179H109.921C110.849 33.4179 111.565 33.6139 112.069 34.0059C112.573 34.3979 112.825 34.9339 112.825 35.6139C112.825 36.1179 112.673 36.5459 112.369 36.8979C112.073 37.2499 111.665 37.4859 111.145 37.6059V37.4139C111.753 37.5179 112.221 37.7499 112.549 38.1099C112.885 38.4619 113.053 38.9219 113.053 39.4899C113.053 40.2419 112.785 40.8299 112.249 41.2539C111.721 41.6699 110.989 41.8779 110.053 41.8779H106.021ZM107.809 40.4859H109.825C110.289 40.4859 110.645 40.3979 110.893 40.2219C111.141 40.0459 111.265 39.7659 111.265 39.3819C111.265 38.9899 111.141 38.7099 110.893 38.5419C110.645 38.3659 110.289 38.2779 109.825 38.2779H107.809V40.4859ZM107.809 36.8979H109.585C110.073 36.8979 110.433 36.8099 110.665 36.6339C110.897 36.4579 111.013 36.1939 111.013 35.8419C111.013 35.4979 110.897 35.2379 110.665 35.0619C110.433 34.8859 110.073 34.7979 109.585 34.7979H107.809V36.8979ZM114.257 41.8779V33.0459H116.069V41.8779H114.257ZM120.61 42.0099C119.554 42.0099 118.73 41.7259 118.138 41.1579C117.546 40.5899 117.25 39.8179 117.25 38.8419C117.25 38.2099 117.374 37.6579 117.622 37.1859C117.878 36.7139 118.23 36.3459 118.678 36.0819C119.134 35.8099 119.666 35.6739 120.274 35.6739C120.874 35.6739 121.374 35.8019 121.774 36.0579C122.182 36.3139 122.486 36.6739 122.686 37.1379C122.894 37.5939 122.998 38.1259 122.998 38.7339V39.1539H118.738V38.2539H121.678L121.474 38.4219C121.474 37.9179 121.37 37.5379 121.162 37.2819C120.962 37.0179 120.67 36.8859 120.286 36.8859C119.862 36.8859 119.534 37.0419 119.302 37.3539C119.078 37.6659 118.966 38.1139 118.966 38.6979V38.8899C118.966 39.4819 119.11 39.9219 119.398 40.2099C119.694 40.4979 120.118 40.6419 120.67 40.6419C120.998 40.6419 121.306 40.6019 121.594 40.5219C121.89 40.4339 122.17 40.2979 122.434 40.1139L122.938 41.3139C122.634 41.5379 122.282 41.7099 121.882 41.8299C121.49 41.9499 121.066 42.0099 120.61 42.0099ZM124.147 41.8779V37.3779C124.147 37.1219 124.139 36.8619 124.123 36.5979C124.107 36.3259 124.083 36.0579 124.051 35.7939H125.791L125.923 36.9219H125.779C125.979 36.5219 126.263 36.2139 126.631 35.9979C126.999 35.7819 127.427 35.6739 127.915 35.6739C128.627 35.6739 129.159 35.8819 129.511 36.2979C129.871 36.7059 130.051 37.3419 130.051 38.2059V41.8779H128.239V38.2899C128.239 37.8499 128.159 37.5379 127.999 37.3539C127.839 37.1699 127.599 37.0779 127.279 37.0779C126.879 37.0779 126.559 37.2059 126.319 37.4619C126.079 37.7099 125.959 38.0459 125.959 38.4699V41.8779H124.147ZM133.895 42.0099C133.367 42.0099 132.899 41.8819 132.491 41.6259C132.091 41.3699 131.775 41.0059 131.543 40.5339C131.319 40.0619 131.207 39.4939 131.207 38.8299C131.207 38.1739 131.319 37.6099 131.543 37.1379C131.767 36.6659 132.083 36.3059 132.491 36.0579C132.899 35.8019 133.367 35.6739 133.895 35.6739C134.375 35.6739 134.803 35.7899 135.179 36.0219C135.563 36.2459 135.819 36.5499 135.947 36.9339H135.791V33.0459H137.603V41.8779H135.815V40.6899H135.971C135.843 41.0899 135.587 41.4099 135.203 41.6499C134.819 41.8899 134.383 42.0099 133.895 42.0099ZM134.435 40.6419C134.851 40.6419 135.187 40.4939 135.443 40.1979C135.699 39.9019 135.827 39.4459 135.827 38.8299C135.827 38.2139 135.699 37.7619 135.443 37.4739C135.187 37.1859 134.851 37.0419 134.435 37.0419C134.019 37.0419 133.679 37.1859 133.415 37.4739C133.159 37.7619 133.031 38.2139 133.031 38.8299C133.031 39.4459 133.159 39.9019 133.415 40.1979C133.679 40.4939 134.019 40.6419 134.435 40.6419Z" fill="#000004"/>
</svg>
