<svg width="113" height="41" viewBox="0 0 113 41" fill="none" xmlns="http://www.w3.org/2000/svg">
<path d="M15.3881 17.7928C15.4051 20.6673 12.2934 23.6716 8.42277 23.0989C8.41468 21.3321 8.4082 19.574 8.4082 17.8216C8.4082 16.0548 8.41225 14.2967 8.42277 12.5443C12.2683 11.974 15.376 14.9327 15.3881 17.7928Z" fill="#0000A9"/>
<path d="M16.2147 30.82C16.1023 33.898 12.6612 37.0664 8.38281 36.4681C8.41032 34.5964 8.43298 32.7038 8.43702 30.7944C8.44349 28.732 8.44107 26.6864 8.42246 24.6673C12.8862 24.1162 16.3272 27.6355 16.2147 30.82Z" fill="#0000A9"/>
<path d="M23.4287 8.87686C22.8292 8.88007 22.2304 8.88007 21.635 8.88567C21.9189 5.33035 19.2465 2.52951 16.6842 2.54473C14.1372 2.55674 11.5061 5.35438 11.7941 8.88567C11.1946 8.88247 10.5959 8.88247 10.0004 8.87686C9.27219 4.46856 13.0344 0.904426 16.6745 0.889209C20.3323 0.873991 24.1577 4.44132 23.4287 8.87686Z" fill="#0000D2"/>
<path d="M10.8646 10.1146C11.1528 10.1146 11.3865 9.87977 11.3865 9.59004C11.3865 9.3003 11.1528 9.06543 10.8646 9.06543C10.5764 9.06543 10.3428 9.3003 10.3428 9.59004C10.3428 9.87977 10.5764 10.1146 10.8646 10.1146Z" fill="#01FD82"/>
<path d="M22.4814 10.1409C22.7696 10.1409 23.0033 9.906 23.0033 9.61627C23.0033 9.32653 22.7696 9.09166 22.4814 9.09166C22.1932 9.09166 21.9596 9.32653 21.9596 9.61627C21.9596 9.906 22.1932 10.1409 22.4814 10.1409Z" fill="#01FD82"/>
<path d="M32.7485 37.6079C32.7485 37.6047 32.7477 37.6015 32.7477 37.5983C32.7355 37.4421 32.7242 37.2851 32.7129 37.1289C32.7129 37.1281 32.7121 37.1273 32.7121 37.1265C32.6951 36.9007 32.6781 36.6748 32.6619 36.449C32.636 36.1038 32.6101 35.7577 32.5834 35.4117C32.5834 35.4085 32.5834 35.4045 32.5826 35.4013C32.5818 35.3893 32.5802 35.3765 32.5794 35.3645C32.2307 31.7972 31.8812 28.2298 31.5324 24.6641L31.5308 24.6449C31.1093 20.3431 30.687 16.0413 30.267 11.7395C30.2371 11.4416 30.208 11.1436 30.1797 10.8457C29.8997 9.79487 29.0194 8.98513 27.9239 8.79932H5.86435C4.80283 9.00916 3.95573 9.80608 3.68307 10.8329H5.76645L9.16702 10.8593L15.0539 10.9042C15.079 10.9042 15.1065 10.9042 15.1316 10.9066C15.7303 10.9482 16.3047 11.0715 16.8492 11.267C18.4658 11.8484 19.783 13.0675 20.5079 14.6052C20.8857 15.3982 21.0985 16.28 21.1171 17.1986C21.1754 20.1413 19.1891 22.7363 16.4342 23.5236C16.3913 23.5356 16.3476 23.5476 16.3039 23.5588C16.2918 23.562 16.2788 23.5652 16.2667 23.5684C16.2643 23.5692 16.261 23.57 16.2586 23.5708H16.257C16.1898 23.5876 16.1227 23.6037 16.0555 23.6181C15.9334 23.6445 15.8104 23.6669 15.6866 23.6862C15.5385 23.7118 15.3864 23.7302 15.2343 23.7422H15.2432C15.2456 23.7422 15.2481 23.7414 15.2505 23.7414C15.2837 23.739 15.3176 23.7382 15.3508 23.7374C15.3799 23.7358 15.4099 23.735 15.439 23.735C15.4835 23.7326 15.5288 23.7318 15.5733 23.7318H15.6777C15.7028 23.7318 15.727 23.7326 15.7521 23.7334C15.8233 23.7342 15.8937 23.7366 15.9633 23.7406C15.9908 23.7414 16.0175 23.743 16.0442 23.7454C16.1453 23.751 16.2457 23.7598 16.346 23.7711C16.4455 23.7823 16.5442 23.7951 16.6429 23.8103C19.9359 24.3133 22.5104 27.1422 22.6083 30.4596C22.6876 33.2853 18.8622 36.867 15.1316 37.5807C15.1065 37.5871 15.079 37.5935 15.0515 37.5975C15.0458 37.5983 15.0401 37.5991 15.0345 37.5999C15.0094 37.6031 14.9827 37.6071 14.9576 37.6119C14.8977 37.6207 14.8338 37.6287 14.7667 37.6359C14.744 37.6383 14.7214 37.6407 14.6979 37.6431C14.6744 37.6455 14.6502 37.6479 14.6259 37.6495C14.5984 37.6527 14.5709 37.6543 14.5426 37.6567C14.4786 37.6624 14.4123 37.6664 14.3419 37.6704C14.3257 37.672 14.3087 37.6728 14.2917 37.6736C14.2658 37.6752 14.24 37.6768 14.2133 37.6776C14.1663 37.6808 14.117 37.6832 14.0668 37.6848C14.0611 37.6848 14.0555 37.6856 14.049 37.6856C13.9236 37.6912 13.7901 37.696 13.6477 37.7C13.5619 37.7024 13.4729 37.704 13.3807 37.7056C13.3314 37.7064 13.2812 37.7072 13.2302 37.708C13.176 37.7088 13.121 37.7096 13.0644 37.7096C13.0271 37.7104 12.9891 37.7104 12.9511 37.7112C12.892 37.712 12.8322 37.712 12.7715 37.7128C12.7383 37.7128 12.7043 37.7136 12.6703 37.7136H12.6145C12.5789 37.7136 12.5433 37.7136 12.5077 37.7144C11.9244 37.7176 11.2366 37.716 10.4268 37.7144C10.3127 37.7144 10.1994 37.7136 10.0869 37.7128C10.0028 37.7128 9.91946 37.712 9.83693 37.7112C9.79163 37.7112 9.74632 37.7112 9.70101 37.7104C9.63224 37.7104 9.56427 37.7096 9.49631 37.7088C9.39518 37.708 9.29404 37.7072 9.19452 37.7056C9.14436 37.7056 9.09582 37.7048 9.04646 37.704C9.01572 37.7032 8.98497 37.7024 8.95504 37.7024C8.8005 37.7008 8.64839 37.6984 8.49871 37.696C8.3102 37.6928 8.12654 37.6896 7.94692 37.6864C7.71633 37.6816 7.49384 37.6768 7.27781 37.672C7.2058 37.6704 7.13541 37.6688 7.06502 37.6664C6.92424 37.6632 6.7867 37.6592 6.6532 37.6551C6.57957 37.6535 6.50757 37.6511 6.43637 37.6495C6.33442 37.6463 6.2341 37.6431 6.13701 37.6391C6.03102 37.6351 5.92746 37.6319 5.82713 37.6279C5.80933 37.6279 5.79234 37.6271 5.77454 37.6263H5.76645V37.7168H1.76797C1.39013 37.7168 1.05841 37.9299 0.888499 38.247L0.88769 38.2478C0.865845 38.2887 0.847236 38.3311 0.831055 38.3744C0.915199 39.5878 1.77849 40.5881 2.92981 40.8893H26.7953C27.6222 40.8693 28.449 40.85 29.2759 40.83C29.3334 40.8284 29.39 40.8268 29.4474 40.826C29.4482 40.826 29.4482 40.826 29.4491 40.826C29.4547 40.8268 29.4596 40.8284 29.4652 40.8292H30.564C30.6149 40.8196 30.6651 40.8084 30.7145 40.7956H30.7153C30.7557 40.786 30.7946 40.7748 30.8342 40.7619C31.818 40.4696 32.5745 39.6615 32.7873 38.6531L32.7898 38.6403L32.8124 38.5169L32.8156 38.4977C32.793 38.2014 32.7703 37.9042 32.7485 37.6079ZM10.8653 10.1152C10.5797 10.1152 10.3475 9.87977 10.3475 9.59063C10.3475 9.3007 10.5797 9.06602 10.8653 9.06602C11.1517 9.06602 11.3831 9.3007 11.3831 9.59063C11.3831 9.87977 11.1517 10.1152 10.8653 10.1152ZM22.4829 10.1401C22.1973 10.1401 21.9651 9.9054 21.9651 9.61546C21.9651 9.32633 22.1973 9.09085 22.4829 9.09085C22.7693 9.09085 23.0007 9.32633 23.0007 9.61546C23.0007 9.9054 22.7693 10.1401 22.4829 10.1401Z" fill="#0000D2"/>
<path fill-rule="evenodd" clip-rule="evenodd" d="M32.8154 38.4678C32.8089 38.5215 32.8016 38.5752 32.7919 38.628V38.6304C32.5872 39.7685 31.694 40.6672 30.5524 40.889H2.91823C1.76691 40.5879 0.90362 39.5875 0.819475 38.3741C0.817048 38.3501 0.816239 38.3253 0.81543 38.3004L0.820284 38.2476L0.821093 38.2468L0.880965 37.6229H5.81555V37.6277C5.91588 37.6317 6.01944 37.6349 6.12543 37.6389C6.22252 37.6421 6.32284 37.6453 6.42479 37.6485C6.49599 37.6509 6.568 37.6525 6.64162 37.6549C6.77512 37.6589 6.91266 37.6629 7.05344 37.6661C7.12383 37.6685 7.19422 37.6701 7.26623 37.6717C7.46446 37.6773 7.66835 37.6821 7.87952 37.6861C8.05913 37.6893 8.24279 37.6925 8.43131 37.6957C8.58099 37.6981 8.7331 37.7005 8.88763 37.7021C8.98553 37.7037 9.08343 37.7045 9.18294 37.7053C9.28246 37.7069 9.3836 37.7077 9.48473 37.7085C9.5527 37.7093 9.62066 37.7102 9.68943 37.7102C9.73474 37.711 9.78005 37.711 9.82536 37.711C9.90788 37.7118 9.99122 37.7126 10.0754 37.7126C10.1878 37.7134 10.3011 37.7142 10.4152 37.7142C11.2251 37.7158 11.9128 37.7174 12.4961 37.7142C12.5317 37.7134 12.5673 37.7134 12.6029 37.7134C12.6369 37.7134 12.6709 37.7126 12.7041 37.7126H12.7599C12.8206 37.7118 12.8804 37.7118 12.9395 37.711C12.9775 37.7101 13.0156 37.7102 13.0528 37.7093C13.09 37.7085 13.1264 37.7085 13.1628 37.7077C13.2138 37.7069 13.2639 37.7061 13.3133 37.7053C13.4055 37.7037 13.4945 37.7021 13.5803 37.6997C13.7445 37.6957 13.8967 37.6909 14.0374 37.6853C14.0439 37.6853 14.0496 37.6845 14.0552 37.6845C14.1054 37.6829 14.1547 37.6805 14.2017 37.6773C14.2284 37.6765 14.2543 37.6749 14.2802 37.6733C14.2971 37.6725 14.3141 37.6717 14.3303 37.6701C14.4007 37.6661 14.4671 37.6621 14.531 37.6565C14.5593 37.6541 14.5868 37.6525 14.6143 37.6493C14.6386 37.6477 14.6629 37.6453 14.6863 37.6429C14.7098 37.6405 14.7324 37.6381 14.7551 37.6357C14.8255 37.6285 14.8918 37.6204 14.9541 37.6116C14.9857 37.6076 15.0172 37.6036 15.0464 37.5972C15.0731 37.5932 15.0973 37.5884 15.1224 37.5828C15.1265 37.582 15.1297 37.5812 15.1337 37.5804C18.8628 36.8644 22.6906 33.285 22.6113 30.4594C22.5126 27.1355 19.934 24.3074 16.6394 23.81C16.5383 23.794 16.4364 23.7812 16.3344 23.7708C16.2341 23.7596 16.1338 23.7508 16.0326 23.7452C16.0059 23.7428 15.9792 23.7412 15.9517 23.7404C15.8821 23.7364 15.8117 23.734 15.7405 23.7332C15.7066 23.7324 15.6718 23.7316 15.637 23.7316H15.5617C15.5172 23.7324 15.4719 23.7332 15.4274 23.7348C15.3983 23.7348 15.3684 23.7356 15.3392 23.7372C15.3036 23.738 15.2672 23.7404 15.2316 23.742C15.2341 23.742 15.2365 23.7412 15.2389 23.7412C15.2535 23.7396 15.2689 23.7388 15.2834 23.7372H15.2858C15.4193 23.7251 15.5528 23.7083 15.6831 23.6859C15.8045 23.6675 15.9242 23.6443 16.044 23.6178C16.1143 23.6026 16.1831 23.5858 16.2527 23.5682H16.2551C16.2673 23.565 16.2802 23.5618 16.2923 23.5586C16.336 23.5473 16.3797 23.5353 16.4226 23.5233C19.1864 22.7488 21.1824 20.1482 21.1226 17.196C21.1031 16.2773 20.8887 15.3963 20.5109 14.605L31.4116 24.5485C31.6625 27.1003 31.9125 29.6512 32.1617 32.203C32.317 33.7888 32.4723 35.3746 32.6277 36.9597C32.6301 36.9885 32.6333 37.0181 32.6366 37.047C32.639 37.0734 32.6414 37.099 32.6439 37.1255L32.6447 37.1263V37.1271C32.6641 37.1775 32.6827 37.228 32.6989 37.2793L32.8122 38.4334L32.8154 38.4678Z" fill="#0000A9"/>
<path d="M42.1055 25.6161C41.3688 25.6161 40.6798 25.5251 40.0385 25.3431C39.3972 25.1611 38.8512 24.9098 38.4005 24.5891L38.9985 23.0031C39.2932 23.2025 39.6052 23.3715 39.9345 23.5101C40.2638 23.6488 40.6105 23.7571 40.9745 23.8351C41.3385 23.9045 41.7198 23.9391 42.1185 23.9391C42.7425 23.9391 43.1845 23.8438 43.4445 23.6531C43.7132 23.4625 43.8475 23.2198 43.8475 22.9251C43.8475 22.6565 43.7565 22.4528 43.5745 22.3141C43.4012 22.1668 43.0805 22.0411 42.6125 21.9371L41.0785 21.6251C40.2378 21.4518 39.6095 21.1571 39.1935 20.7411C38.7775 20.3251 38.5695 19.7705 38.5695 19.0771C38.5695 18.4878 38.7255 17.9765 39.0375 17.5431C39.3495 17.1098 39.7872 16.7718 40.3505 16.5291C40.9225 16.2865 41.5898 16.1651 42.3525 16.1651C43.0025 16.1651 43.6092 16.2561 44.1725 16.4381C44.7358 16.6201 45.1995 16.8801 45.5635 17.2181L44.9655 18.7001C44.6102 18.4141 44.2115 18.2018 43.7695 18.0631C43.3362 17.9158 42.8508 17.8421 42.3135 17.8421C41.7502 17.8421 41.3168 17.9418 41.0135 18.1411C40.7188 18.3405 40.5715 18.6135 40.5715 18.9601C40.5715 19.2201 40.6625 19.4325 40.8445 19.5971C41.0265 19.7531 41.3472 19.8788 41.8065 19.9741L43.3145 20.2731C44.1725 20.4465 44.8095 20.7368 45.2255 21.1441C45.6415 21.5515 45.8495 22.0931 45.8495 22.7691C45.8495 23.3411 45.6935 23.8395 45.3815 24.2641C45.0782 24.6888 44.6448 25.0225 44.0815 25.2651C43.5268 25.4991 42.8682 25.6161 42.1055 25.6161ZM50.2093 25.6161C49.3513 25.6161 48.7056 25.4038 48.2723 24.9791C47.8389 24.5458 47.6223 23.9001 47.6223 23.0421V20.3511H46.3743V18.8821H47.6223V17.2701L49.5853 16.7891V18.8821H51.2753V20.3511H49.5853V22.9381C49.5853 23.3541 49.6719 23.6401 49.8453 23.7961C50.0186 23.9521 50.2396 24.0301 50.5083 24.0301C50.6729 24.0301 50.8073 24.0215 50.9113 24.0041C51.0239 23.9781 51.1409 23.9435 51.2623 23.9001V25.4211C51.0976 25.4905 50.9243 25.5381 50.7423 25.5641C50.5603 25.5988 50.3826 25.6161 50.2093 25.6161ZM55.3391 25.6161C54.6371 25.6161 54.0261 25.4775 53.5061 25.2001C52.9948 24.9141 52.5961 24.5155 52.3101 24.0041C52.0328 23.4928 51.8941 22.8818 51.8941 22.1711C51.8941 21.4691 52.0328 20.8625 52.3101 20.3511C52.5961 19.8398 52.9948 19.4455 53.5061 19.1681C54.0261 18.8908 54.6371 18.7521 55.3391 18.7521C56.0411 18.7521 56.6521 18.8908 57.1721 19.1681C57.6921 19.4455 58.0908 19.8398 58.3681 20.3511C58.6541 20.8625 58.7971 21.4691 58.7971 22.1711C58.7971 22.8818 58.6541 23.4928 58.3681 24.0041C58.0908 24.5155 57.6921 24.9141 57.1721 25.2001C56.6521 25.4775 56.0411 25.6161 55.3391 25.6161ZM55.3391 24.1341C55.7898 24.1341 56.1451 23.9738 56.4051 23.6531C56.6738 23.3325 56.8081 22.8385 56.8081 22.1711C56.8081 21.5038 56.6738 21.0141 56.4051 20.7021C56.1451 20.3901 55.7898 20.2341 55.3391 20.2341C54.8884 20.2341 54.5288 20.3901 54.2601 20.7021C54.0001 21.0141 53.8701 21.5038 53.8701 22.1711C53.8701 22.8385 54.0001 23.3325 54.2601 23.6531C54.5288 23.9738 54.8884 24.1341 55.3391 24.1341ZM60.0518 25.4731V20.6241C60.0518 20.3381 60.0431 20.0478 60.0258 19.7531C60.0171 19.4585 59.9955 19.1681 59.9608 18.8821H61.8458L62.0668 20.8061H61.7678C61.8545 20.3381 61.9931 19.9525 62.1838 19.6491C62.3831 19.3458 62.6258 19.1205 62.9118 18.9731C63.2065 18.8258 63.5401 18.7521 63.9128 18.7521C64.0775 18.7521 64.2075 18.7608 64.3028 18.7781C64.3981 18.7868 64.4935 18.8085 64.5888 18.8431L64.5758 20.5721C64.3938 20.4941 64.2378 20.4465 64.1078 20.4291C63.9865 20.4031 63.8305 20.3901 63.6398 20.3901C63.2758 20.3901 62.9725 20.4595 62.7298 20.5981C62.4958 20.7368 62.3181 20.9405 62.1968 21.2091C62.0841 21.4778 62.0278 21.8028 62.0278 22.1841V25.4731H60.0518ZM68.6103 25.6161C67.4663 25.6161 66.5736 25.3085 65.9323 24.6931C65.2909 24.0778 64.9703 23.2415 64.9703 22.1841C64.9703 21.4995 65.1046 20.9015 65.3733 20.3901C65.6506 19.8788 66.0319 19.4801 66.5173 19.1941C67.0113 18.8995 67.5876 18.7521 68.2463 18.7521C68.8963 18.7521 69.4379 18.8908 69.8713 19.1681C70.3133 19.4455 70.6426 19.8355 70.8593 20.3381C71.0846 20.8321 71.1973 21.4085 71.1973 22.0671V22.5221H66.5823V21.5471H69.7673L69.5463 21.7291C69.5463 21.1831 69.4336 20.7715 69.2083 20.4941C68.9916 20.2081 68.6753 20.0651 68.2593 20.0651C67.7999 20.0651 67.4446 20.2341 67.1933 20.5721C66.9506 20.9101 66.8293 21.3955 66.8293 22.0281V22.2361C66.8293 22.8775 66.9853 23.3541 67.2973 23.6661C67.6179 23.9781 68.0773 24.1341 68.6753 24.1341C69.0306 24.1341 69.3643 24.0908 69.6763 24.0041C69.9969 23.9088 70.3003 23.7615 70.5863 23.5621L71.1323 24.8621C70.8029 25.1048 70.4216 25.2911 69.9883 25.4211C69.5636 25.5511 69.1043 25.6161 68.6103 25.6161Z" fill="#0000D2"/>
<path d="M39.8587 34.6405C39.4927 34.6405 39.1657 34.5505 38.8777 34.3705C38.5957 34.1905 38.4067 33.9505 38.3107 33.6505H38.4097V34.5415H37.0687V27.9175H38.4277V30.8335H38.3107C38.4127 30.5455 38.6047 30.3175 38.8867 30.1495C39.1747 29.9755 39.4987 29.8885 39.8587 29.8885C40.2607 29.8885 40.6117 29.9845 40.9117 30.1765C41.2117 30.3685 41.4457 30.6415 41.6137 30.9955C41.7877 31.3495 41.8747 31.7755 41.8747 32.2735C41.8747 32.7655 41.7877 33.1885 41.6137 33.5425C41.4457 33.8965 41.2087 34.1695 40.9027 34.3615C40.6027 34.5475 40.2547 34.6405 39.8587 34.6405ZM39.4537 33.6145C39.7597 33.6145 40.0117 33.5065 40.2097 33.2905C40.4077 33.0745 40.5067 32.7355 40.5067 32.2735C40.5067 31.8115 40.4077 31.4695 40.2097 31.2475C40.0117 31.0255 39.7597 30.9145 39.4537 30.9145C39.1417 30.9145 38.8867 31.0225 38.6887 31.2385C38.4967 31.4545 38.4007 31.7935 38.4007 32.2555C38.4007 32.7175 38.4967 33.0595 38.6887 33.2815C38.8867 33.5035 39.1417 33.6145 39.4537 33.6145ZM42.6048 36.5845L42.2898 35.5225C42.5718 35.4685 42.8088 35.4055 43.0008 35.3335C43.1988 35.2615 43.3608 35.1655 43.4868 35.0455C43.6128 34.9315 43.7148 34.7815 43.7928 34.5955L44.0178 34.0645L43.9818 34.5865L42.0018 29.9785H43.4328L44.7378 33.2815H44.4588L45.7818 29.9785H47.1318L45.0708 34.7215C44.9208 35.0635 44.7588 35.3455 44.5848 35.5675C44.4168 35.7955 44.2338 35.9755 44.0358 36.1075C43.8378 36.2395 43.6188 36.3415 43.3788 36.4135C43.1448 36.4855 42.8868 36.5425 42.6048 36.5845ZM53.2971 34.6405C52.6191 34.6405 52.0371 34.5055 51.5511 34.2355C51.0651 33.9655 50.6901 33.5875 50.4261 33.1015C50.1681 32.6095 50.0391 32.0305 50.0391 31.3645C50.0391 30.6985 50.1681 30.1225 50.4261 29.6365C50.6901 29.1505 51.0651 28.7725 51.5511 28.5025C52.0371 28.2325 52.6191 28.0975 53.2971 28.0975C53.7351 28.0975 54.1341 28.1605 54.4941 28.2865C54.8541 28.4065 55.1601 28.5835 55.4121 28.8175L54.9711 29.9245C54.6951 29.7085 54.4311 29.5555 54.1791 29.4655C53.9331 29.3755 53.6541 29.3305 53.3421 29.3305C52.7481 29.3305 52.2921 29.5075 51.9741 29.8615C51.6621 30.2095 51.5061 30.7105 51.5061 31.3645C51.5061 32.0185 51.6621 32.5225 51.9741 32.8765C52.2921 33.2305 52.7481 33.4075 53.3421 33.4075C53.6541 33.4075 53.9331 33.3625 54.1791 33.2725C54.4311 33.1825 54.6951 33.0295 54.9711 32.8135L55.4121 33.9205C55.1601 34.1485 54.8541 34.3255 54.4941 34.4515C54.1341 34.5775 53.7351 34.6405 53.2971 34.6405ZM56.2992 34.5415V27.9175H57.6582V30.8335H57.5232C57.6672 30.5275 57.8802 30.2935 58.1622 30.1315C58.4442 29.9695 58.7682 29.8885 59.1342 29.8885C59.6682 29.8885 60.0672 30.0445 60.3312 30.3565C60.5952 30.6625 60.7272 31.1335 60.7272 31.7695V34.5415H59.3682V31.8325C59.3682 31.5145 59.3082 31.2865 59.1882 31.1485C59.0742 31.0105 58.8942 30.9415 58.6482 30.9415C58.3482 30.9415 58.1082 31.0345 57.9282 31.2205C57.7482 31.4065 57.6582 31.6555 57.6582 31.9675V34.5415H56.2992ZM63.5917 34.6405C63.1957 34.6405 62.8477 34.5445 62.5477 34.3525C62.2477 34.1605 62.0137 33.8875 61.8457 33.5335C61.6777 33.1795 61.5937 32.7535 61.5937 32.2555C61.5937 31.7635 61.6777 31.3405 61.8457 30.9865C62.0137 30.6325 62.2477 30.3625 62.5477 30.1765C62.8477 29.9845 63.1957 29.8885 63.5917 29.8885C63.9577 29.8885 64.2847 29.9785 64.5727 30.1585C64.8667 30.3325 65.0587 30.5695 65.1487 30.8695H65.0497L65.1577 29.9785H66.4627C66.4447 30.1765 66.4267 30.3775 66.4087 30.5815C66.3967 30.7795 66.3907 30.9745 66.3907 31.1665V34.5415H65.0407L65.0317 33.6865H65.1397C65.0437 33.9745 64.8517 34.2055 64.5637 34.3795C64.2757 34.5535 63.9517 34.6405 63.5917 34.6405ZM64.0057 33.6145C64.3177 33.6145 64.5697 33.5035 64.7617 33.2815C64.9537 33.0595 65.0497 32.7175 65.0497 32.2555C65.0497 31.7935 64.9537 31.4545 64.7617 31.2385C64.5697 31.0225 64.3177 30.9145 64.0057 30.9145C63.6937 30.9145 63.4417 31.0225 63.2497 31.2385C63.0577 31.4545 62.9617 31.7935 62.9617 32.2555C62.9617 32.7175 63.0547 33.0595 63.2407 33.2815C63.4327 33.5035 63.6877 33.6145 64.0057 33.6145ZM67.5053 34.5415V31.1665C67.5053 30.9745 67.4993 30.7795 67.4873 30.5815C67.4753 30.3775 67.4573 30.1765 67.4333 29.9785H68.7383L68.8373 30.8245H68.7293C68.8793 30.5245 69.0923 30.2935 69.3683 30.1315C69.6443 29.9695 69.9653 29.8885 70.3313 29.8885C70.8653 29.8885 71.2643 30.0445 71.5283 30.3565C71.7983 30.6625 71.9333 31.1395 71.9333 31.7875V34.5415H70.5743V31.8505C70.5743 31.5205 70.5143 31.2865 70.3943 31.1485C70.2743 31.0105 70.0943 30.9415 69.8543 30.9415C69.5543 30.9415 69.3143 31.0375 69.1343 31.2295C68.9543 31.4155 68.8643 31.6675 68.8643 31.9855V34.5415H67.5053ZM73.0248 34.5415V31.1665C73.0248 30.9745 73.0188 30.7795 73.0068 30.5815C72.9948 30.3775 72.9768 30.1765 72.9528 29.9785H74.2578L74.3568 30.8245H74.2488C74.3988 30.5245 74.6118 30.2935 74.8878 30.1315C75.1638 29.9695 75.4848 29.8885 75.8508 29.8885C76.3848 29.8885 76.7838 30.0445 77.0478 30.3565C77.3178 30.6625 77.4528 31.1395 77.4528 31.7875V34.5415H76.0938V31.8505C76.0938 31.5205 76.0338 31.2865 75.9138 31.1485C75.7938 31.0105 75.6138 30.9415 75.3738 30.9415C75.0738 30.9415 74.8338 31.0375 74.6538 31.2295C74.4738 31.4155 74.3838 31.6675 74.3838 31.9855V34.5415H73.0248ZM80.8393 34.6405C80.0473 34.6405 79.4293 34.4275 78.9853 34.0015C78.5413 33.5755 78.3193 32.9965 78.3193 32.2645C78.3193 31.7905 78.4123 31.3765 78.5983 31.0225C78.7903 30.6685 79.0543 30.3925 79.3903 30.1945C79.7323 29.9905 80.1313 29.8885 80.5873 29.8885C81.0373 29.8885 81.4123 29.9845 81.7123 30.1765C82.0183 30.3685 82.2463 30.6385 82.3963 30.9865C82.5523 31.3285 82.6303 31.7275 82.6303 32.1835V32.4985H79.4353V31.8235H81.6403L81.4873 31.9495C81.4873 31.5715 81.4093 31.2865 81.2533 31.0945C81.1033 30.8965 80.8843 30.7975 80.5963 30.7975C80.2783 30.7975 80.0323 30.9145 79.8583 31.1485C79.6903 31.3825 79.6063 31.7185 79.6063 32.1565V32.3005C79.6063 32.7445 79.7143 33.0745 79.9303 33.2905C80.1523 33.5065 80.4703 33.6145 80.8843 33.6145C81.1303 33.6145 81.3613 33.5845 81.5773 33.5245C81.7993 33.4585 82.0093 33.3565 82.2073 33.2185L82.5853 34.1185C82.3573 34.2865 82.0933 34.4155 81.7933 34.5055C81.4993 34.5955 81.1813 34.6405 80.8393 34.6405ZM83.4926 34.5415V27.9175H84.8516V34.5415H83.4926ZM86.0523 34.5415V28.1965H88.9773C89.6733 28.1965 90.2103 28.3435 90.5883 28.6375C90.9663 28.9315 91.1553 29.3335 91.1553 29.8435C91.1553 30.2215 91.0413 30.5425 90.8133 30.8065C90.5913 31.0705 90.2853 31.2475 89.8953 31.3375V31.1935C90.3513 31.2715 90.7023 31.4455 90.9483 31.7155C91.2003 31.9795 91.3263 32.3245 91.3263 32.7505C91.3263 33.3145 91.1253 33.7555 90.7233 34.0735C90.3273 34.3855 89.7783 34.5415 89.0763 34.5415H86.0523ZM87.3933 33.4975H88.9053C89.2533 33.4975 89.5203 33.4315 89.7063 33.2995C89.8923 33.1675 89.9853 32.9575 89.9853 32.6695C89.9853 32.3755 89.8923 32.1655 89.7063 32.0395C89.5203 31.9075 89.2533 31.8415 88.9053 31.8415H87.3933V33.4975ZM87.3933 30.8065H88.7253C89.0913 30.8065 89.3613 30.7405 89.5353 30.6085C89.7093 30.4765 89.7963 30.2785 89.7963 30.0145C89.7963 29.7565 89.7093 29.5615 89.5353 29.4295C89.3613 29.2975 89.0913 29.2315 88.7253 29.2315H87.3933V30.8065ZM92.2289 34.5415V27.9175H93.5879V34.5415H92.2289ZM96.9936 34.6405C96.2016 34.6405 95.5836 34.4275 95.1396 34.0015C94.6956 33.5755 94.4736 32.9965 94.4736 32.2645C94.4736 31.7905 94.5666 31.3765 94.7526 31.0225C94.9446 30.6685 95.2086 30.3925 95.5446 30.1945C95.8866 29.9905 96.2856 29.8885 96.7416 29.8885C97.1916 29.8885 97.5666 29.9845 97.8666 30.1765C98.1726 30.3685 98.4006 30.6385 98.5506 30.9865C98.7066 31.3285 98.7846 31.7275 98.7846 32.1835V32.4985H95.5896V31.8235H97.7946L97.6416 31.9495C97.6416 31.5715 97.5636 31.2865 97.4076 31.0945C97.2576 30.8965 97.0386 30.7975 96.7506 30.7975C96.4326 30.7975 96.1866 30.9145 96.0126 31.1485C95.8446 31.3825 95.7606 31.7185 95.7606 32.1565V32.3005C95.7606 32.7445 95.8686 33.0745 96.0846 33.2905C96.3066 33.5065 96.6246 33.6145 97.0386 33.6145C97.2846 33.6145 97.5156 33.5845 97.7316 33.5245C97.9536 33.4585 98.1636 33.3565 98.3616 33.2185L98.7396 34.1185C98.5116 34.2865 98.2476 34.4155 97.9476 34.5055C97.6536 34.5955 97.3356 34.6405 96.9936 34.6405ZM99.6469 34.5415V31.1665C99.6469 30.9745 99.6409 30.7795 99.6289 30.5815C99.6169 30.3775 99.5989 30.1765 99.5749 29.9785H100.88L100.979 30.8245H100.871C101.021 30.5245 101.234 30.2935 101.51 30.1315C101.786 29.9695 102.107 29.8885 102.473 29.8885C103.007 29.8885 103.406 30.0445 103.67 30.3565C103.94 30.6625 104.075 31.1395 104.075 31.7875V34.5415H102.716V31.8505C102.716 31.5205 102.656 31.2865 102.536 31.1485C102.416 31.0105 102.236 30.9415 101.996 30.9415C101.696 30.9415 101.456 31.0375 101.276 31.2295C101.096 31.4155 101.006 31.6675 101.006 31.9855V34.5415H99.6469ZM106.957 34.6405C106.561 34.6405 106.21 34.5445 105.904 34.3525C105.604 34.1605 105.367 33.8875 105.193 33.5335C105.025 33.1795 104.941 32.7535 104.941 32.2555C104.941 31.7635 105.025 31.3405 105.193 30.9865C105.361 30.6325 105.598 30.3625 105.904 30.1765C106.21 29.9845 106.561 29.8885 106.957 29.8885C107.317 29.8885 107.638 29.9755 107.92 30.1495C108.208 30.3175 108.4 30.5455 108.496 30.8335H108.379V27.9175H109.738V34.5415H108.397V33.6505H108.514C108.418 33.9505 108.226 34.1905 107.938 34.3705C107.65 34.5505 107.323 34.6405 106.957 34.6405ZM107.362 33.6145C107.674 33.6145 107.926 33.5035 108.118 33.2815C108.31 33.0595 108.406 32.7175 108.406 32.2555C108.406 31.7935 108.31 31.4545 108.118 31.2385C107.926 31.0225 107.674 30.9145 107.362 30.9145C107.05 30.9145 106.795 31.0225 106.597 31.2385C106.405 31.4545 106.309 31.7935 106.309 32.2555C106.309 32.7175 106.405 33.0595 106.597 33.2815C106.795 33.5035 107.05 33.6145 107.362 33.6145Z" fill="#000004"/>
</svg>
